<svg width="69" height="69" fill="none" xmlns="http://www.w3.org/2000/svg">
  <path d="M59.402 34.312h-7.339l-.878 3.073h1.13l-3.639 5.709-.502-8.782h-7.402l-.815 3.01h1.129l-4.83 7.34h-4.015c-.439 0-2.007-.377-2.007-2.384 0-2.007 1.882-4.893 3.826-4.893h.816c-.125.502-.44 1.506-.44 1.506h3.576l1.255-4.642H33.81c-3.388 0-6.148 2.446-7.026 4.956l1.443-4.956h-4.893l-.878 3.074h1.255l-1.255 4.453-3.2-7.527h-4.578l-.878 3.136h1.254l-2.823 10.288h3.639s1.38-5.081 1.756-6.398a1145.14 1145.14 0 002.634 6.398h4.078l1.882-6.524a8.099 8.099 0 000 3.01c.376 2.134 2.446 3.514 4.704 3.514h7.402l1.255-1.945h5.206l.125 1.882h4.642l1.192-1.882h5.332l.188 1.945h3.262l.69-1.443-.816-11.918z" fill="#fff"/>
  <path d="M60.156 50.056c0-1.003.752-1.819 1.756-1.819s1.756.753 1.756 1.82c0 1.066-.752 1.818-1.756 1.818-.941 0-1.756-.752-1.756-1.819zm1.819 2.196a2.182 2.182 0 002.195-2.196 2.182 2.182 0 00-2.195-2.195 2.182 2.182 0 00-2.196 2.195c-.063 1.255.941 2.196 2.196 2.196zm-.502-2.008h.439l.69 1.067h.439l-.69-1.13c.376-.062.627-.25.627-.69 0-.501-.313-.69-.878-.69h-.94v2.51h.313v-1.067zm0-.313v-.753h.502c.25 0 .564.063.564.376 0 .377-.314.44-.627.44h-.44v-.063zM41.65 42.59l2.886-4.328.125 4.265h-3.01v.063zm11.354-.063l2.823-4.265.125 4.265h-2.948z" fill="#009cde"/>
  <path d="M56.203 47.672l-.188-1.944h-5.332l-1.191 1.882H44.85l-.126-1.882h-5.206l-1.255 1.944h-7.401c-2.259 0-4.391-1.38-4.705-3.512a8.099 8.099 0 010-3.011l-1.882 6.523h-4.077s-2.133-5.206-2.635-6.398c-.313 1.318-1.693 6.398-1.693 6.398h-3.638l2.822-10.287H13.8l.878-3.01h4.579l3.2 7.527 1.254-4.454h-1.255l.878-3.074h4.893l-1.443 4.956c.879-2.51 3.639-4.956 7.026-4.956h5.457l-1.255 4.642h-3.575s.314-1.003.44-1.505h-.816c-1.945 0-3.827 2.885-3.827 4.892 0 2.008 1.631 2.384 2.008 2.384h4.014l4.83-7.34h-1.129l.816-3.01h7.401l.502 8.782 3.638-5.708h-1.129l.878-3.074h7.34l.815 11.918c1.63-3.575 2.509-7.527 2.509-11.73 0-15.619-12.608-28.227-28.227-28.227-15.62 0-28.228 12.608-28.228 28.227 0 15.62 12.609 28.227 28.228 28.227a28.127 28.127 0 0024.965-15.054h-3.262v-.126z" fill="#009cde"/>
</svg>